<?xml version="1.0" encoding="UTF-8"?>
<svg width="146px" height="40px" viewBox="0 0 146 40" version="1.1" xmlns="http://www.w3.org/2000/svg" xmlns:xlink="http://www.w3.org/1999/xlink">
    <!-- Generator: Sketch 44.1 (41455) - http://www.bohemiancoding.com/sketch -->
    <title>Artboard Copy</title>
    <desc>Created with Sketch.</desc>
    <defs></defs>
    <g id="Page-1" stroke="none" stroke-width="1" fill="none" fill-rule="evenodd">
        <g id="Artboard-Copy">
            <g id="Group-3" transform="translate(1.000000, 3.000000)">
                <g id="mkr" transform="translate(67.000000, 11.000000)" fill-rule="nonzero" fill="#546979">
                    <path d="M1.43512473,3.73744828 L7.13323573,13.1383847 C7.13323573,13.1383847 7.1367727,13.1419175 7.14384674,13.1489832 L7.14384674,13.1595818 C7.15799482,13.1737133 7.17214268,13.1913774 7.18629077,13.2125747 C7.20043885,13.2267062 7.21458672,13.2408375 7.22873479,13.2549689 C7.24288288,13.2691005 7.25703075,13.2832318 7.27117883,13.2973633 C7.29240095,13.3114948 7.31008579,13.3256261 7.32423387,13.3397576 C7.35960407,13.3609548 7.366678,13.3644876 7.34545588,13.3503561 C7.35252992,13.3503561 7.35606689,13.3538889 7.35606689,13.3609547 L7.37728891,13.3609547 C7.39851102,13.3750862 7.41973283,13.3856847 7.44095495,13.3927505 C7.45510303,13.3998162 7.47278787,13.4068819 7.49400998,13.4139476 C7.5152321,13.4210134 7.53645391,13.4245462 7.55767603,13.4245462 C7.57182411,13.431612 7.58950895,13.4351448 7.61073106,13.4351448 C7.63195319,13.4422105 7.65317499,13.4457433 7.67439711,13.4457433 C7.69561923,13.4457433 7.71684103,13.4422105 7.73806316,13.4351448 C7.75928528,13.4351448 7.77697011,13.431612 7.7911182,13.4245462 C7.81234031,13.4245462 7.83356212,13.4210134 7.85478424,13.4139476 C7.87600636,13.4068819 7.89369119,13.3998162 7.90783928,13.3927505 C7.92906139,13.3856847 7.9502832,13.3750862 7.97150532,13.3609547 C7.99980148,13.3468232 8.01041239,13.3432904 8.00333834,13.3503561 C7.98211622,13.3644876 7.98919016,13.3609548 8.02456036,13.3397576 C8.03870844,13.3256261 8.05639327,13.3114948 8.07761539,13.2973633 C8.09176347,13.2832318 8.10591135,13.2691005 8.12005942,13.2549689 C8.12713347,13.2479032 8.14128133,13.233772 8.16250346,13.2125747 C8.17665153,13.1913774 8.19079941,13.1737133 8.20494749,13.1595818 L8.20494749,13.1489832 C8.21202152,13.1419175 8.21555849,13.1383847 8.21555849,13.1383847 L13.9136695,3.73744828 L13.9136695,15.3640855 C13.9136695,15.5407293 13.9737979,15.6926407 14.0940566,15.8198242 C14.2213894,15.939942 14.369942,16 14.5397189,16 C14.7165699,16 14.8651225,15.939942 14.9853812,15.8198242 C15.112714,15.6926407 15.1763794,15.5407293 15.1763794,15.3640855 L15.1763794,1.46935313 C15.1763794,1.15139435 15.0207528,0.950023435 14.7094951,0.865234353 C14.4053113,0.780445365 14.1683345,0.875831529 13.9985576,1.15139595 L7.67439711,11.5909927 L1.35023667,1.15139595 C1.1804597,0.875831529 0.943482897,0.780445365 0.639299164,0.865234353 C0.328041389,0.950023435 0.172414836,1.15139435 0.172414836,1.46935313 L0.172414836,15.3640855 C0.172414836,15.5407293 0.232543277,15.6926407 0.352801963,15.8198242 C0.480134688,15.939942 0.632224275,16 0.809075284,16 C0.978852251,16 1.12740487,15.939942 1.25473759,15.8198242 C1.37499628,15.6926407 1.43512473,15.5407293 1.43512473,15.3640855 L1.43512473,3.73744828 Z M23.3261048,11.1776482 L26.6791832,3.10153374 L30.0322614,11.1776482 L23.3261048,11.1776482 Z M20.906795,16 C21.1897567,16 21.3842899,15.8692856 21.4904004,15.6078527 L22.8061654,12.4494773 L30.5522008,12.4494773 L31.8679658,15.6078527 C31.9740763,15.8692856 32.1686095,16 32.4515712,16 C32.5364596,16 32.6178099,15.9823359 32.6956243,15.9470072 C32.8583273,15.8834153 32.9715103,15.770365 33.0351766,15.6078527 C33.1059169,15.4453404 33.1059169,15.2828306 33.0351766,15.1203182 L31.5602466,11.5697955 L31.5602466,11.5591969 L27.2627885,1.2043888 C27.2486405,1.16906005 27.2309556,1.13019896 27.2097335,1.08780442 C27.2097335,1.09487021 27.1955856,1.08073892 27.1672895,1.04541016 C27.1460673,1.01714711 27.1319195,0.999483012 27.1248455,0.992417318 C27.1177714,0.992417318 27.1000866,0.978286024 27.0717904,0.950022965 C27.0434942,0.928825694 27.0293464,0.918227294 27.0293464,0.918227294 C26.9586059,0.868766965 26.8807927,0.836971576 26.7959042,0.822840094 C26.8029783,0.822840094 26.7852934,0.822840094 26.7428492,0.822840094 C26.7074789,0.815774306 26.6862572,0.812241506 26.6791832,0.812241506 C26.672109,0.812241506 26.6473503,0.815774306 26.604906,0.822840094 L26.551851,0.822840094 C26.4740366,0.836971576 26.3997603,0.868766965 26.3290198,0.918227294 C26.3360939,0.911161506 26.3219461,0.92176 26.2865758,0.950022965 C26.2582796,0.971220235 26.2405948,0.985351529 26.2335208,0.992417318 C26.2264467,0.999483012 26.2122989,1.01714711 26.1910767,1.04541016 C26.1627806,1.07367313 26.1486327,1.08780442 26.1486327,1.08780442 C26.1274106,1.13019896 26.1097257,1.16906005 26.0955777,1.2043888 L21.7981196,11.5591969 L21.7981196,11.5697955 L20.3231896,15.1203182 C20.2524493,15.2828306 20.2524493,15.4453404 20.3231896,15.6078527 C20.386856,15.770365 20.5000389,15.8834153 20.6627419,15.9470072 C20.7405564,15.9823359 20.8219066,16 20.906795,16 L20.906795,16 Z M38.8292583,15.7032399 C38.956591,15.5831221 39.0202564,15.4347435 39.0202564,15.2580998 L39.0202564,11.209444 L40.9090157,9.21691181 L47.1801212,15.8092256 C47.3074539,15.9364092 47.4595435,16 47.6363945,16 C47.8061714,16 47.9511871,15.9434748 48.0714458,15.8304228 C48.1987785,15.710305 48.2659809,15.5619264 48.2730549,15.3852826 C48.2730549,15.2086388 48.2129265,15.0602602 48.0926678,14.9401425 L41.7791184,8.30543426 L47.8804476,1.90389478 C48.0007063,1.77671125 48.0572978,1.62479981 48.0502238,1.44815605 C48.0502238,1.27857798 47.9865584,1.13373224 47.8592256,1.0136144 C47.7318929,0.893496659 47.5798033,0.833438682 47.4029523,0.833438682 C47.2331753,0.840504376 47.0881597,0.907628047 46.967901,1.03481158 L39.0202564,9.38648894 L39.0202564,1.40576169 C39.0202564,1.23618362 38.956591,1.08780508 38.8292583,0.960621553 C38.7089996,0.840503812 38.560447,0.780445741 38.383596,0.780445741 C38.213819,0.780445741 38.0652664,0.840503812 37.9379337,0.960621553 C37.817675,1.08780508 37.7575466,1.23618362 37.7575466,1.40576169 L37.7575466,15.2580998 C37.7575466,15.4347435 37.817675,15.5831221 37.9379337,15.7032399 C38.0652664,15.8304234 38.213819,15.8940142 38.383596,15.8940142 C38.560447,15.8940142 38.7089996,15.8304234 38.8292583,15.7032399 L38.8292583,15.7032399 Z M62.2057793,16 C62.3826303,16 62.5311829,15.9364092 62.6514416,15.8092256 C62.7787744,15.6891079 62.8424398,15.5407293 62.8424398,15.3640855 C62.8424398,15.1874417 62.7787744,15.0390631 62.6514416,14.9189453 C62.5311829,14.7917618 62.3826303,14.7281709 62.2057793,14.7281709 L54.4172998,14.7281709 L54.4172998,9.02613741 L60.242743,9.02613741 C60.419594,9.02613741 60.5681466,8.96254664 60.6884053,8.83536301 C60.8157381,8.71524527 60.8794034,8.56686673 60.8794034,8.39022287 C60.8794034,8.21357911 60.8157381,8.06520047 60.6884053,7.94508273 C60.5681466,7.8178992 60.419594,7.75430833 60.242743,7.75430833 L54.4172998,7.75430833 L54.4172998,2.05227482 L62.2057793,2.073472 C62.3826303,2.073472 62.5311829,2.01341393 62.6514416,1.89329619 C62.7787744,1.76611266 62.8424398,1.61420122 62.8424398,1.43755746 C62.8424398,1.26797939 62.7787744,1.11960085 62.6514416,0.992417318 C62.5311829,0.865233694 62.3826303,0.801642918 62.2057793,0.801642918 L53.7806394,0.780445741 C53.6108625,0.773380047 53.4623099,0.836970824 53.3349771,0.971220141 C53.2076444,1.09133788 53.143979,1.23971652 53.143979,1.41636028 L53.143979,15.3640855 C53.143979,15.5407293 53.2076444,15.6891079 53.3349771,15.8092256 C53.4552358,15.9364092 53.6037884,16 53.7806394,16 L62.2057793,16 Z M75.6291754,6.89582372 C75.027882,7.44695247 74.2957298,7.72957826 73.4326968,7.74370984 L69.1882939,7.74370984 L69.1882939,2.073472 L73.3584198,2.073472 C74.2356008,2.073472 74.9854379,2.35256499 75.6079534,2.91075944 C76.230469,3.46188809 76.5417221,4.12959162 76.5417221,4.91389016 C76.5417221,5.68405713 76.2375429,6.34469506 75.6291754,6.89582372 L75.6291754,6.89582372 Z M68.5516334,0.822840094 C68.3818565,0.822840094 68.2333039,0.882898071 68.1059711,1.00301581 C67.9857124,1.12313365 67.925584,1.27151219 67.925584,1.44815605 L67.925584,15.2686983 C67.925584,15.4382763 67.9857124,15.586655 68.1059711,15.7138385 C68.2333039,15.8339562 68.3818565,15.8940142 68.5516334,15.8940142 C68.7284844,15.8940142 68.8770371,15.8339562 68.9972957,15.7138385 C69.1246285,15.586655 69.1882939,15.4382763 69.1882939,15.2686983 L69.1882939,9.00494024 L72.7323704,9.00494024 L76.0111717,15.6502471 C76.1243564,15.8834168 76.3118156,16 76.5735551,16 C76.6725917,16 76.7645528,15.9788031 76.8494413,15.9364086 C77.0050702,15.8586853 77.1111792,15.7385693 77.1677715,15.5760569 C77.2243639,15.4135447 77.213753,15.2545676 77.1359385,15.0991211 L74.1118013,8.9413488 C75.1658333,8.77883652 76.0394643,8.31956951 76.7327202,7.56353402 C77.4401243,6.80043275 77.7938209,5.91722701 77.7938209,4.91389016 C77.7938209,3.78336979 77.362311,2.81890908 76.499278,2.02047906 C75.6291711,1.22204913 74.5822288,0.822840094 73.3584198,0.822840094 L68.5516334,0.822840094 Z" id="Maker"></path>
                </g>
                <g id="Path-3-Copy-4-+-Path-3-Copy-5-Copy" stroke-width="2">
                    <polyline id="Path-3-Copy-4" stroke="#1ABC9C" points="21.7595995 35.0560644 21.7595996 16.3399929 0 0 0 35.0560648"></polyline>
                    <polyline id="Path-3-Copy-5" stroke="#546979" transform="translate(39.334661, 17.528032) scale(-1, 1) translate(-39.334661, -17.528032) " points="50.2144609 35.0560644 50.2144611 16.3399929 28.4548615 0 28.4548615 35.0560648"></polyline>
                </g>
            </g>
        </g>
    </g>
</svg>